# Blender 3.3.0
# www.blender.org
o Cube
v 10.000000 0.000000 -10.000000
v 10.000000 -1.000000 -10.000000
v 10.000000 0.000000 10.000000
v 10.000000 -1.000000 10.000000
v -10.000000 0.000000 -10.000000
v -10.000000 -1.000000 -10.000000
v -10.000000 0.000000 10.000000
v -10.000000 -1.000000 10.000000
v -11.000000 -1.050000 -11.000000
v -11.000000 -1.050000 11.000000
v 11.000000 -1.050000 -11.000000
v 11.000000 0.050000 -11.000000
v -11.000000 0.050000 11.000000
v 11.000000 0.050000 11.000000
v 11.000000 -1.050000 11.000000
v -11.000000 0.050000 -11.000000
v -11.000000 11.050000 -11.000000
v -10.000000 11.000000 -10.000000
v 10.000000 11.000000 -10.000000
v 11.000000 11.050000 -11.000000
v 10.000000 11.000000 10.000000
v -10.000000 11.000000 10.000000
v 11.000000 11.050000 11.000000
v -11.000000 11.050000 11.000000
v -10.000000 5.500000 -10.000000
v 10.000000 5.500000 -10.000000
v -10.000000 5.500000 10.000000
v 10.000000 5.500000 10.000000
v 10.000000 7.095866 -10.000000
v -10.000000 7.095866 10.000000
v -10.000000 7.095866 -10.000000
v 10.000000 7.095866 10.000000
v -9.583317 6.853364 -9.583317
v -9.583317 5.742502 -9.583317
v 9.583317 6.853364 9.583317
v 9.583317 5.742502 9.583317
v 9.583317 5.742502 -9.583317
v -9.583317 5.742502 9.583317
v 9.583317 6.853364 -9.583317
v -9.583317 6.853364 9.583317
vn -0.0000 1.0000 -0.0000
vn -0.0499 -0.9988 -0.0000
vn -0.0000 -0.0000 -1.0000
vn -0.0000 -1.0000 -0.0000
vn -0.0000 -0.9988 -0.0499
vn 1.0000 -0.0000 -0.0000
vn -0.0000 -0.0000 1.0000
vn -1.0000 -0.0000 -0.0000
vn 0.0499 -0.9988 -0.0000
vn -0.0000 -0.9988 0.0499
vn -0.0000 0.9988 -0.0499
vn -0.0000 0.9988 0.0499
vn 0.0499 0.9988 -0.0000
vn -0.0499 0.9988 -0.0000
vn 0.5030 0.8643 -0.0000
vn -0.5030 -0.8643 -0.0000
vn -0.0000 0.8643 -0.5030
vn -0.0000 -0.8643 0.5030
vn -0.0000 -0.8643 -0.5030
vn 0.5030 -0.8643 -0.0000
vn -0.0000 0.8643 0.5030
vn -0.5030 0.8643 -0.0000
vt 0.625000 0.500000
vt 0.375000 0.500000
vt 0.625000 0.750000
vt 0.375000 0.750000
vt 0.875000 0.500000
vt 0.125000 0.500000
vt 0.875000 0.750000
vt 0.125000 0.750000
vt 0.375000 0.250000
vt 0.125000 0.500000
vt 0.375000 0.000000
vt 0.375000 1.000000
vt 0.125000 0.750000
vt 0.375000 0.500000
vt 0.625000 0.500000
vt 0.625000 1.000000
vt 0.625000 0.000000
vt 0.625000 0.750000
vt 0.375000 0.750000
vt 0.625000 0.250000
vt 0.875000 0.500000
vt 0.625000 0.250000
vt 0.875000 0.500000
vt 0.625000 0.500000
vt 0.625000 0.500000
vt 0.625000 0.750000
vt 0.875000 0.750000
vt 0.625000 0.750000
vt 0.625000 0.000000
vt 0.875000 0.750000
vt 0.625000 1.000000
vt 0.875000 0.500000
vt 0.625000 0.500000
vt 0.875000 0.750000
vt 0.625000 0.750000
vt 0.625000 0.500000
vt 0.875000 0.750000
vt 0.875000 0.500000
vt 0.625000 0.750000
vt 0.875000 0.500000
vt 0.875000 0.500000
vt 0.625000 0.750000
vt 0.625000 0.750000
vt 0.625000 0.500000
vt 0.875000 0.750000
vt 0.625000 0.500000
vt 0.875000 0.750000
s 0
f 5/5/1 3/3/1 1/1/1
f 2/2/2 15/19/2 4/4/2
f 30/37/3 21/26/3 32/39/3
f 2/2/4 8/8/4 6/6/4
f 4/4/5 10/13/5 8/8/5
f 12/15/6 23/28/6 14/18/6
f 14/18/7 10/12/7 15/19/7
f 13/17/8 9/9/8 10/11/8
f 12/15/6 15/19/6 11/14/6
f 16/20/3 11/14/3 9/9/3
f 8/8/9 9/10/9 6/6/9
f 29/36/7 18/23/7 31/38/7
f 13/17/8 17/22/8 16/20/8
f 6/6/10 11/14/10 2/2/10
f 22/27/11 23/28/11 21/26/11
f 19/24/12 17/21/12 18/23/12
f 18/23/13 24/30/13 22/27/13
f 21/26/14 20/25/14 19/24/14
f 16/20/3 20/25/3 12/15/3
f 31/38/6 22/27/6 30/37/6
f 14/18/7 24/31/7 13/16/7
f 32/39/8 19/24/8 29/36/8
f 3/3/8 26/33/8 1/1/8
f 5/5/6 27/34/6 7/7/6
f 1/1/7 25/32/7 5/5/7
f 7/7/3 28/35/3 3/3/3
f 30/37/15 33/40/15 31/38/15
f 28/35/16 37/44/16 26/33/16
f 32/39/17 40/47/17 30/37/17
f 26/33/18 34/41/18 25/32/18
f 36/43/8 39/46/8 37/44/8
f 34/41/6 40/47/6 38/45/6
f 37/44/7 33/40/7 34/41/7
f 38/45/3 35/42/3 36/43/3
f 27/34/19 36/43/19 28/35/19
f 25/32/20 38/45/20 27/34/20
f 31/38/21 39/46/21 29/36/21
f 29/36/22 35/42/22 32/39/22
f 5/5/1 7/7/1 3/3/1
f 2/2/2 11/14/2 15/19/2
f 30/37/3 22/27/3 21/26/3
f 2/2/4 4/4/4 8/8/4
f 4/4/5 15/19/5 10/13/5
f 12/15/6 20/25/6 23/28/6
f 14/18/7 13/16/7 10/12/7
f 13/17/8 16/20/8 9/9/8
f 12/15/6 14/18/6 15/19/6
f 16/20/3 12/15/3 11/14/3
f 8/8/9 10/13/9 9/10/9
f 29/36/7 19/24/7 18/23/7
f 13/17/8 24/29/8 17/22/8
f 6/6/10 9/10/10 11/14/10
f 22/27/11 24/30/11 23/28/11
f 19/24/12 20/25/12 17/21/12
f 18/23/13 17/21/13 24/30/13
f 21/26/14 23/28/14 20/25/14
f 16/20/3 17/22/3 20/25/3
f 31/38/6 18/23/6 22/27/6
f 14/18/7 23/28/7 24/31/7
f 32/39/8 21/26/8 19/24/8
f 3/3/8 28/35/8 26/33/8
f 5/5/6 25/32/6 27/34/6
f 1/1/7 26/33/7 25/32/7
f 7/7/3 27/34/3 28/35/3
f 30/37/15 40/47/15 33/40/15
f 28/35/16 36/43/16 37/44/16
f 32/39/17 35/42/17 40/47/17
f 26/33/18 37/44/18 34/41/18
f 36/43/8 35/42/8 39/46/8
f 34/41/6 33/40/6 40/47/6
f 37/44/7 39/46/7 33/40/7
f 38/45/3 40/47/3 35/42/3
f 27/34/19 38/45/19 36/43/19
f 25/32/20 34/41/20 38/45/20
f 31/38/21 33/40/21 39/46/21
f 29/36/22 39/46/22 35/42/22
