# Blender 3.3.0
# www.blender.org
o Cube.001
v -0.438296 -0.080478 -7.428525
v -0.438296 1.919522 -7.428525
v -1.344581 -0.080478 -9.211401
v -1.344581 1.919522 -9.211401
v 1.344581 -0.080478 -8.334810
v 1.344581 1.919522 -8.334810
v 0.438296 -0.080478 -10.117686
v 0.438296 1.919522 -10.117686
v -0.453594 1.938668 -8.129416
v -0.453594 2.845855 -8.129416
v -0.453594 1.938668 -9.036604
v -0.453594 2.845855 -9.036604
v 0.453593 1.938668 -8.129416
v 0.453593 2.845855 -8.129416
v 0.453593 1.938668 -9.036604
v 0.453593 2.845855 -9.036604
v -5.997519 -0.244617 -8.905494
v -5.997519 18.060717 -8.905494
v -5.997519 -0.244617 -10.027044
v -5.997519 18.060717 -10.027044
v -4.875968 -0.244617 -8.905494
v -4.875968 18.060717 -8.905494
v -4.875968 -0.244617 -10.027044
v -4.875968 18.060717 -10.027044
v 4.378904 -1.000000 -5.706056
v 4.378904 1.000000 -5.706056
v 4.378904 -1.000000 -7.706056
v 4.378904 1.000000 -7.706056
v 6.378904 -1.000000 -5.706055
v 6.378904 1.000000 -5.706055
v 6.378904 -1.000000 -7.706055
v 6.378904 1.000000 -7.706055
vn -0.8914 -0.0000 0.4531
vn -0.4531 -0.0000 -0.8914
vn 0.8914 -0.0000 -0.4531
vn 0.4531 -0.0000 0.8914
vn -0.0000 -1.0000 -0.0000
vn -0.0000 1.0000 -0.0000
vn -1.0000 -0.0000 -0.0000
vn -0.0000 -0.0000 -1.0000
vn 1.0000 -0.0000 -0.0000
vn -0.0000 -0.0000 1.0000
vt 0.375000 0.000000
vt 0.375000 1.000000
vt 0.125000 0.750000
vt 0.625000 0.000000
vt 0.625000 1.000000
vt 0.875000 0.750000
vt 0.125000 0.500000
vt 0.375000 0.250000
vt 0.625000 0.250000
vt 0.875000 0.500000
vt 0.375000 0.750000
vt 0.625000 0.750000
vt 0.375000 0.500000
vt 0.625000 0.500000
vt 0.375000 0.000000
vt 0.375000 1.000000
vt 0.125000 0.750000
vt 0.625000 0.000000
vt 0.625000 1.000000
vt 0.875000 0.750000
vt 0.125000 0.500000
vt 0.375000 0.250000
vt 0.625000 0.250000
vt 0.875000 0.500000
vt 0.375000 0.750000
vt 0.625000 0.750000
vt 0.375000 0.500000
vt 0.625000 0.500000
vt 0.375000 0.000000
vt 0.375000 1.000000
vt 0.125000 0.750000
vt 0.625000 0.000000
vt 0.625000 1.000000
vt 0.875000 0.750000
vt 0.125000 0.500000
vt 0.375000 0.250000
vt 0.625000 0.250000
vt 0.875000 0.500000
vt 0.375000 0.750000
vt 0.625000 0.750000
vt 0.375000 0.500000
vt 0.625000 0.500000
vt 0.375000 0.000000
vt 0.375000 1.000000
vt 0.125000 0.750000
vt 0.625000 0.000000
vt 0.625000 1.000000
vt 0.875000 0.750000
vt 0.125000 0.500000
vt 0.375000 0.250000
vt 0.625000 0.250000
vt 0.875000 0.500000
vt 0.375000 0.750000
vt 0.625000 0.750000
vt 0.375000 0.500000
vt 0.625000 0.500000
s 0
f 2/4/1 3/8/1 1/1/1
f 4/9/2 7/13/2 3/8/2
f 8/14/3 5/11/3 7/13/3
f 6/12/4 1/2/4 5/11/4
f 7/13/5 1/3/5 3/7/5
f 4/10/6 6/12/6 8/14/6
f 10/18/7 11/22/7 9/15/7
f 12/23/8 15/27/8 11/22/8
f 16/28/9 13/25/9 15/27/9
f 14/26/10 9/16/10 13/25/10
f 15/27/5 9/17/5 11/21/5
f 12/24/6 14/26/6 16/28/6
f 18/32/7 19/36/7 17/29/7
f 20/37/8 23/41/8 19/36/8
f 24/42/9 21/39/9 23/41/9
f 22/40/10 17/30/10 21/39/10
f 23/41/5 17/31/5 19/35/5
f 20/38/6 22/40/6 24/42/6
f 26/46/7 27/50/7 25/43/7
f 28/51/8 31/55/8 27/50/8
f 32/56/9 29/53/9 31/55/9
f 30/54/10 25/44/10 29/53/10
f 31/55/5 25/45/5 27/49/5
f 28/52/6 30/54/6 32/56/6
f 2/4/1 4/9/1 3/8/1
f 4/9/2 8/14/2 7/13/2
f 8/14/3 6/12/3 5/11/3
f 6/12/4 2/5/4 1/2/4
f 7/13/5 5/11/5 1/3/5
f 4/10/6 2/6/6 6/12/6
f 10/18/7 12/23/7 11/22/7
f 12/23/8 16/28/8 15/27/8
f 16/28/9 14/26/9 13/25/9
f 14/26/10 10/19/10 9/16/10
f 15/27/5 13/25/5 9/17/5
f 12/24/6 10/20/6 14/26/6
f 18/32/7 20/37/7 19/36/7
f 20/37/8 24/42/8 23/41/8
f 24/42/9 22/40/9 21/39/9
f 22/40/10 18/33/10 17/30/10
f 23/41/5 21/39/5 17/31/5
f 20/38/6 18/34/6 22/40/6
f 26/46/7 28/51/7 27/50/7
f 28/51/8 32/56/8 31/55/8
f 32/56/9 30/54/9 29/53/9
f 30/54/10 26/47/10 25/44/10
f 31/55/5 29/53/5 25/45/5
f 28/52/6 26/48/6 30/54/6
